<?xml version="1.0" encoding="utf-8"?>
<!-- Generator: Adobe Illustrator 27.3.1, SVG Export Plug-In . SVG Version: 6.00 Build 0)  -->
<svg version="1.1" id="Layer_1" xmlns="http://www.w3.org/2000/svg" xmlns:xlink="http://www.w3.org/1999/xlink" x="0px" y="0px"
	 viewBox="0 0 1080 1080" style="enable-background:new 0 0 1080 1080;" xml:space="preserve">
<style type="text/css">
	.st0{fill:none;stroke:#3F48CC;stroke-width:25;stroke-linejoin:bevel;stroke-miterlimit:10;}
	.st1{fill:none;stroke:#3F48CC;stroke-width:25;stroke-miterlimit:10;}
	.st2{fill:#3F48CC;}
	.st3{fill:none;stroke:#000000;stroke-width:5;stroke-miterlimit:10;}
	.st4{fill:none;}
	.st5{font-family:'Poppins-Black';}
	.st6{font-size:100px;}
</style>
<g>
	<g>
		<path class="st0" d="M96.6,702.4C159.4,674,248.1,625.6,335,543.8C452.8,433,480.8,342.3,549.7,344.3
			c63.4,1.8,85.8,79.9,185.7,183c65,67,133.2,114.1,192.3,147.2c20.3,11.4,39.5,21.1,57.2,29.4"/>
		<path class="st1" d="M69.9,676.9c91-199.9,165.7-238.8,216-239.1c104.4-0.7,145.7,164.1,259.7,162.3
			c112.1-1.8,148.7-162.5,248.6-162.3c49.6,0.1,122.1,39.9,210.8,239.1"/>
		<circle class="st2" cx="546.4" cy="260.1" r="59.4"/>
		<circle class="st2" cx="283" cy="365.8" r="46.3"/>
		<circle class="st2" cx="796.5" cy="365.8" r="46.3"/>
		<path class="st3" d="M1010.1,446.5"/>
	</g>
	<rect x="105.2" y="752.7" class="st4" width="869.5" height="126.6"/>
	<text transform="matrix(1 0 0 1 259.3536 826.6981)" class="st2 st5 st6">MelinIQ HR</text>
</g>
</svg>
